<svg id="Layer_1" data-name="Layer 1" xmlns="http://www.w3.org/2000/svg" viewBox="0 0 886 878"><defs><style>.cls-1{fill:#f56a6a;}.cls-2{fill:#fff;}</style></defs><path class="cls-1" d="M359.23,416.09c27.66-30.66,44.61-65.34,52.57-104.7,6.77-33.51,2.5-66.77-1.53-100-1.54-12.75-2-25.25-10.56-36.87-8.33-11.3-2.75-27.9,8.79-36.45,11.7-8.68,27.49-7.93,38.54,2.79,18.56,18,36.67,36.45,55,54.73,11.52,11.5,23.15,22.9,34.46,34.6,3.65,3.78,6.45,4.31,11.47,1.93,20.3-9.62,41.27-6,57.46,9.44,6.71,6.37,13.39,12.82,19.61,19.66,15,16.51,18.49,35.48,9.42,55.81-2.79,6.26-1.79,9.42,2.66,13.81,28.61,28.27,56.9,56.85,85.45,85.18,7.42,7.36,12.16,15.66,11.16,26.32-1.07,11.36-6.78,19.87-17.26,24.6-10.79,4.88-21.06,3.44-30.75-3.38-3-2.13-6.44-4.89-9.84-5.15-33.67-2.57-67.48-7.61-101-6.23-47.35,1.95-88.48,22.3-124.82,54.52,2.36,2.7,4.25,5.07,6.36,7.23,11.13,11.42,11.13,13.19-.4,24.75-12.18,12.2-24.28,24.48-36.65,36.49-2.47,2.4-6,3.73-8.81,5.43,6.73,9.43,10.84,13,19.47,6.55,11.52-8.54,27.5-5.56,37.37,5.08,1.93,2.08,3.66,4.34,5.41,6.44,22.73-10.7,31.76-8.91,47.33,8.6,7.67-2,14.88-5.23,22.15-5.33,12.13-.17,21.28,6.34,26.16,17.65s3.62,22.34-4.73,31.26c-14.19,15.12-28.93,29.75-44,44-2.76,2.62-8.13,3.6-12.25,3.51-47.08-1.06-89.43-16-127-44.37-3.05-2.3-6.07-4.66-9.11-7a14.44,14.44,0,0,1-3-2.46c-7.2,8-14.18,16.13-21.65,23.81-8,8.2-11.92,8.13-20,0-4.4-4.43-8.27-9.39-12.38-14.12L311.25,656c0,6.85-.08,13.7,0,20.55.12,8.28-3.73,12.45-12.14,12.39-11.17-.07-22.34,0-33.51,0-7.84,0-11.87-3.75-11.87-11.66V653.61c-6.31,6.06-10.92,10.53-15.57,15-7.94,7.6-11.73,7.73-19.38.3-7.1-6.89-14.07-13.92-21-21-8.11-8.28-8.27-12.06-.21-20,4.47-4.41,9.59-8.16,14.42-12.21l-1.87-3.37c-6.19,0-12.38,0-18.57,0-11.81-.1-14.4-2.73-14.46-14.8-.05-9.9-.11-19.8,0-29.69s3.16-12.82,13.35-13c6.06-.12,12.12-.15,18.18-.23a30.28,30.28,0,0,0,3.09-.89c-5.18-5.25-9.69-9.75-14.12-14.32-7.94-8.21-7.95-11.84.08-20,6-6.16,12.17-12.2,18.26-18.3,10.22-10.22,10.82-10.32,23.34-3.28,2.8-2.65,5.83-5.39,8.72-8.28q39.64-39.57,79.25-79.2c11.87-11.86,13.25-11.84,25.4,0C354.49,412,356.43,413.59,359.23,416.09Zm77.53,76.08a9.26,9.26,0,0,0,1.66-.94c56.16-48.77,121.25-67.08,194.66-57.17,7.24,1,14.57,1.39,20.84,2l-224.81-225c15,81.5.29,155.57-55.44,218Zm-185,23.34,98.77,98.84,87.19-87.3-98.45-98.92Zm176.9-363.9c-10.2-.27-15.52,8.2-11.58,15.43,1.48,2.72,4,4.93,6.23,7.17Q542.35,293.35,661.45,412.46c11.28,11.28,22.52,22.59,33.88,33.8,5,4.93,10.82,6.14,16,.86s3.74-11-1.07-16.07c-1.32-1.38-2.71-2.71-4.06-4.06Q662.61,383.33,619,339.66,528.29,249,437.53,158.39C434.5,155.37,430.68,153.15,428.64,151.61Zm-55,471.14c36.57,35,79.72,53.71,129.82,56.2,3.19.16,7.2-2.2,9.69-4.57C524.23,663.83,535,652.89,545.72,642c7-7,8-13.57,2.56-18.14-6.66-5.62-12.43-2.71-17.46,2.79-6.61,7.22-13.1,14.53-19.73,21.91l-14.24-13.14c.73-1.74.85-2.45,1.25-2.89,5.16-5.59,9.09-11.93,2.13-18.23-7.41-6.7-13.31-1.42-18.75,4.17-6.36,6.53-13,12.82-19.33,19.12l-13.7-12.18c1.72-2.26,2.61-3.56,3.64-4.74,4.66-5.32,5.69-11.06.21-16.06s-11.15-3.21-16.07,1.66c-1.13,1.12-2.29,2.22-3.36,3.41-5.8,6.5-11.93,6.33-18.46,1.07-5.41-4.36-10.93-8.59-16-12.55ZM215.57,528.51c5.42,11.35,22.2,15,14.63,33.35s-22,9.14-33.2,13v17.52c12,3.05,26-5.07,33.42,13.34s-10.32,21.57-14.27,31.8l11.41,13c11.26-5.86,15-22.28,33.39-14.68S269.81,658,273.85,669h17.52c2.95-12.15-5-26.07,13.47-33.42s21.44,10.61,32.83,14.7l7.07-7.56c-11.26-11.91-21.74-23-32.18-34-21.33,16.3-40.55,17.93-55.35,3-5.92-6-10.3-14.72-12.34-23-3.37-13.64,3.52-25.19,12.52-35.1l-34-33.34ZM558.94,248.19q29.38,29.71,58.73,59.37c4.4-10.9,3.12-21.86-5.09-31.27a231,231,0,0,0-23-23C580.17,245.21,569.25,244,558.94,248.19ZM296.81,595.1l-25.63-26c-9.3,7.75-10.48,19-2.48,27.47C277,605.32,288.76,604.48,296.81,595.1Z"/><path class="cls-2" d="M436.76,492.17,373.67,429c55.73-62.39,70.43-136.46,55.44-218L653.92,436c-6.27-.58-13.6-1-20.84-2-73.41-9.91-138.5,8.4-194.66,57.17A9.26,9.26,0,0,1,436.76,492.17Z"/><path class="cls-2" d="M251.74,515.51l87.51-87.38,98.45,98.92-87.19,87.3Zm142-11.28L381.54,491.3l-10.44,7.38-33.17-35.34-15,12.31,37.32,34.45-6.62,8.83,12,13,10.44-7.26,12.2,16.92L403.81,529c-5.84-6.28-10.93-11.75-16-17.16Zm-67.06,9.58c-4.24-4.5-8.23-8.76-12.16-12.94l-8.24,5.83L300.06,502c-4.94,4.08-9.46,7.81-14.13,11.65l6.11,7.54-6.19,8.28c4.42,4.23,8.63,8.27,12.88,12.32l9.58-7.53L352.12,580l15.49-13.85-47.17-44.32Z"/><path class="cls-2" d="M428.64,151.61c2,1.54,5.86,3.76,8.89,6.78Q528.34,248.93,619,339.66q43.65,43.65,87.26,87.33c1.35,1.35,2.74,2.68,4.06,4.06,4.81,5.06,6.3,10.76,1.07,16.07s-11,4.07-16-.86c-11.36-11.21-22.6-22.52-33.88-33.8Q542.36,293.35,423.29,174.21c-2.24-2.24-4.75-4.45-6.23-7.17C413.12,159.81,418.44,151.34,428.64,151.61Z"/><path class="cls-2" d="M373.63,622.75l24.79-24.54c5.06,4,10.58,8.19,16,12.55,6.53,5.26,12.66,5.43,18.46-1.07,1.07-1.19,2.23-2.29,3.36-3.41,4.92-4.87,10.57-6.68,16.07-1.66s4.45,10.74-.21,16.06c-1,1.18-1.92,2.48-3.64,4.74l13.7,12.18c6.38-6.3,13-12.59,19.33-19.12,5.44-5.59,11.34-10.87,18.75-4.17,7,6.3,3,12.64-2.13,18.23-.4.44-.52,1.15-1.25,2.89l14.24,13.14c6.63-7.38,13.12-14.69,19.73-21.91,5-5.5,10.8-8.41,17.46-2.79,5.42,4.57,4.4,11.1-2.56,18.14-10.77,10.88-21.49,21.82-32.58,32.37-2.49,2.37-6.5,4.73-9.69,4.57C453.35,676.46,410.2,657.75,373.63,622.75Z"/><path class="cls-2" d="M215.57,528.51l7.81-8.17,34,33.34c-9,9.91-15.89,21.46-12.52,35.1,2,8.24,6.42,17,12.34,23,14.8,14.88,34,13.25,55.35-3,10.44,11,20.92,22.12,32.18,34l-7.07,7.56c-11.39-4.09-14.49-22-32.83-14.7S294.32,656.85,291.37,669H273.85c-4-11,5.42-25.49-12.9-33.09s-22.13,8.82-33.39,14.68l-11.41-13c3.95-10.23,21.65-13.43,14.27-31.8S209,595.47,197,592.42V574.9c11.22-3.9,25.65,5.33,33.2-13S221,539.86,215.57,528.51Z"/><path class="cls-2" d="M558.94,248.19c10.31-4.21,21.23-3,30.62,5.14a231,231,0,0,1,23,23c8.21,9.41,9.49,20.37,5.09,31.27Q588.25,277.85,558.94,248.19Z"/><path class="cls-2" d="M296.81,595.1c-8.05,9.38-19.85,10.22-28.11,1.48-8-8.46-6.82-19.72,2.48-27.47Z"/><path class="cls-1" d="M393.71,504.23l-5.88,7.58c5.05,5.41,10.14,10.88,16,17.16l-15.54,12.66-12.2-16.92L365.63,532l-12-13,6.62-8.83L322.9,475.65l15-12.31,33.17,35.34,10.44-7.38Z"/><path class="cls-1" d="M326.65,513.81l-6.21,8,47.17,44.32L352.12,580l-43.81-45.76-9.58,7.53c-4.25-4-8.46-8.09-12.88-12.32l6.19-8.28-6.11-7.54c4.67-3.84,9.19-7.57,14.13-11.65l6.19,4.73,8.24-5.83C318.42,505.05,322.41,509.31,326.65,513.81Z"/></svg>