<svg id="Layer_1" data-name="Layer 1" xmlns="http://www.w3.org/2000/svg" viewBox="0 0 886 878"><defs><style>.cls-1{fill:#f56a6a;}.cls-2{fill:#fff;}</style></defs><path class="cls-1" d="M642.92,285.9c40.36,10.21,71.5,31.77,92.71,66.46,49.88,81.59,9,187.18-83.24,214.6-8.11,2.41-9.74,5.91-9.65,13.55.4,34.2.24,68.4.16,102.61s-21.64,55.8-55.58,55.82q-131.11.12-262.22,0c-33.93,0-55.44-21.76-55.49-55.91q-.12-69.45,0-138.89V531.82H210l-6.71-24.27c-5,2.68-9.76,4.47-13.59,7.45-6.32,4.91-10.47,3.36-15.64-2.1-13.3-14-26.94-27.8-41.06-41-5.92-5.54-7.18-10-2-16.44,2.75-3.44,4.61-7.6,7.71-12.87l-24.65-7c0-24.56-.16-48.71.27-72.85,0-2.29,3.34-5.56,5.85-6.56,5.34-2.11,11.17-3,17.89-4.71-1.66-3.5-2.73-6.25-4.2-8.77-7.92-13.68-8-13.67,3.49-25.12,12.22-12.21,24.81-24.07,36.52-36.76C179.5,274.73,184,274,190.38,279c3.45,2.73,7.59,4.6,11.93,7.15,1.11-2.11,2.17-3.46,2.58-5C210,262,210,262,230.3,262h39.28V249.89c0-33.16-.1-66.33,0-99.49.14-32.1,22-54.25,53.95-54.3q132.66-.19,265.33,0c31.91,0,53.85,22.19,54,54.26.16,41.11,0,82.22,0,123.34ZM332.68,241.56V593.1H580.23a68.14,68.14,0,0,1,.46-7.7c2-11.26-2.17-16.3-13.66-20C519.8,550,487.77,517.93,473.52,470.5c-5.92-19.71-6.1-41.15-9.1-63.32H353.28V262.49H559.85v29.38l20-5.9V241.56Zm-41.39-41.44V634.36h330.2V573.43H601.42v40.35H312V221.13h289.8v61.05h19.61V200.12ZM722.12,482.48C746.45,440.6,741,371,687.86,329.54c-50.37-39.27-122.13-33.44-166.62,13.13C480.72,385.08,480,450,502,481.66c14.56-35.5,50.92-30.47,79.84-42.65-23.78-18-23.38-42.4-21.46-66.86,1.66-21.34,17.18-40.17,36.79-45.71,20.94-5.91,38.38.3,53.78,15.36,17.46,17.07,18.28,73.94-1.73,90.66-2.28,1.91-4.09,4.36-6.59,7.06C671.07,450.84,706.64,446.56,722.12,482.48Zm-99.71-25.81c0-10.11-1.27-19.64.55-28.55.87-4.22,8.7-6.57,11.49-11a59.47,59.47,0,0,0,8.06-19.57c1.35-6.63.48-13.75.31-20.65-.44-18-13.16-31.42-30.09-31.93-16.44-.49-30.57,12.8-31.82,30.45-.54,7.55-1.7,15.63.29,22.65,2.31,8.17,6.25,17.13,12.32,22.62,5.82,5.26,8.78,9.67,8,17.15a43.61,43.61,0,0,0,0,10.34c1,7-2.46,9.46-8.89,10.9-16.83,3.76-33.54,8-50.21,12.46-15,4-24.14,15.64-23.67,31.06a20.51,20.51,0,0,0,5.1,12.55c47.34,49.37,129.58,49.18,176.28-.38a19.37,19.37,0,0,0,4.72-11.68c.53-15.92-8.45-27.47-24.25-31.67C661.34,466.34,642,461.62,622.41,456.67Zm-.28-278c0-9.7.06-18.6,0-27.5-.18-21.62-12.57-34.19-34-34.29-25.57-.13-51.14,0-76.71,0q-93.3,0-186.6,0c-17.46,0-30.8,8.55-33.09,23.74-1.86,12.32-.38,25.14-.38,38.06ZM290.37,656.3c0,9.54,0,18.1,0,26.67.12,22.87,12.34,35.15,35.24,35.19q55.45.11,110.92,0,76.18,0,152.38,0c16.2,0,29.23-8.35,31.56-22.91,2-12.59.42-25.76.42-38.93ZM374.15,283V386.36c31.53,0,62.23.19,92.93-.32,2.72,0,6.68-4.08,7.84-7.11,11.06-28.91,28.92-52.41,54.26-70.2,11.55-8.11,12.5-10.94,8.19-25.71ZM269,467.59c-55.52,2.94-89.75-21.4-92.58-65.52-1.27-19.88,4.41-37.68,17.59-52.62,20.06-22.74,45.68-29.09,74.75-23.08v-43.3H226.17c-1.86,6.78-3.5,13.45-5.56,20a13.06,13.06,0,0,1-18,7.72c-6.35-3.09-13.31-9.35-18.91-8.33-5.95,1.1-10.62,9.12-15.85,14.13-1,1-2,1.95-2.93,2.93-12.66,12.73-12.66,12.73-3.52,28.48,5.73,9.87,2.5,18.16-8.36,21.27-5.91,1.69-11.86,3.2-18.16,4.89v24.49c0,20.13,0,20.13,18.75,25.81,9.5,2.87,13.15,11.38,8.52,19.84-9.53,17.4-9.53,17.4,4.66,31.64l4.4,4.4c13.1,13,13.1,13,29.27,3.75,9.33-5.35,17.53-2.21,20.74,8.13,1.9,6.12,3.46,12.34,5,18H269Zm.54-70.33c0-13.12-.3-26.25.13-39.35.21-6.62-1.77-9.79-8.58-11.43a52,52,0,0,0-54.65,20.69,51.17,51.17,0,0,0,.65,60.07,51.92,51.92,0,0,0,55.07,19.53c5.84-1.58,7.64-4.37,7.49-10.15C269.34,423.51,269.58,410.38,269.58,397.26Z"/><path class="cls-2" d="M332.68,241.56H579.85V286l-20,5.9V262.49H353.28V407.18H464.42c3,22.17,3.18,43.61,9.1,63.32C487.77,517.93,519.8,550,567,565.37c11.49,3.73,15.7,8.77,13.66,20a68.14,68.14,0,0,0-.46,7.7H332.68Zm112.67,187H353.41V448.1h91.94ZM353.14,469.8v19.67h92V469.8Zm-.08,61h92.31V511.38H353.06Zm92.57,22.31H353.32v19.11h92.31Z"/><path class="cls-2" d="M291.29,200.12H621.36v82.06H601.75V221.13H312V613.78H601.42V573.43h20.07v60.93H291.29Z"/><path class="cls-2" d="M722.12,482.48c-15.48-35.92-51-31.64-79.53-43,2.5-2.7,4.31-5.15,6.59-7.06,20-16.72,19.19-73.59,1.73-90.66-15.4-15.06-32.84-21.27-53.78-15.36C577.52,332,562,350.81,560.34,372.15,558.42,396.61,558,421,581.8,439c-28.92,12.18-65.28,7.15-79.84,42.65-22-31.62-21.24-96.58,19.28-139,44.49-46.57,116.25-52.4,166.62-13.13C741,371,746.45,440.6,722.12,482.48Z"/><path class="cls-2" d="M622.41,456.67c19.57,4.95,38.93,9.67,58.19,14.79,15.8,4.2,24.78,15.75,24.25,31.67a19.37,19.37,0,0,1-4.72,11.68c-46.7,49.56-128.94,49.75-176.28.38a20.51,20.51,0,0,1-5.1-12.55c-.47-15.42,8.65-27.07,23.67-31.06,16.67-4.42,33.38-8.7,50.21-12.46,6.43-1.44,9.85-3.85,8.89-10.9a43.61,43.61,0,0,1,0-10.34c.8-7.48-2.16-11.89-8-17.15-6.07-5.49-10-14.45-12.32-22.62-2-7-.83-15.1-.29-22.65,1.25-17.65,15.38-30.94,31.82-30.45,16.93.51,29.65,13.93,30.09,31.93.17,6.9,1,14-.31,20.65a59.47,59.47,0,0,1-8.06,19.57c-2.79,4.39-10.62,6.74-11.49,11C621.14,437,622.41,446.56,622.41,456.67Z"/><path class="cls-2" d="M622.13,178.66H291.29c0-12.92-1.48-25.74.38-38.06,2.29-15.19,15.63-23.72,33.09-23.74q93.3-.09,186.6,0c25.57,0,51.14-.09,76.71,0,21.47.1,33.86,12.67,34,34.29C622.19,160.06,622.13,169,622.13,178.66ZM476.5,138.28h-82v19.45h82Zm21.95-.24v19.43h19.47V138Z"/><path class="cls-2" d="M290.37,656.3H620.9c0,13.17,1.6,26.34-.42,38.93-2.33,14.56-15.36,22.87-31.56,22.91q-76.2.17-152.38,0-55.46,0-110.92,0c-22.9,0-35.12-12.32-35.24-35.19C290.34,674.4,290.37,665.84,290.37,656.3Zm124.9,40.44h82V677.29h-82ZM332.5,677v19.75h19.2V677Zm247.55,20.28V677.45h-19.3v19.79Z"/><path class="cls-2" d="M374.15,283H537.37c4.31,14.77,3.36,17.6-8.19,25.71-25.34,17.79-43.2,41.29-54.26,70.2-1.16,3-5.12,7.07-7.84,7.11-30.7.51-61.4.32-92.93.32Z"/><path class="cls-2" d="M269,467.59v42.62H226.21c-1.57-5.66-3.13-11.88-5-18-3.21-10.34-11.41-13.48-20.74-8.13-16.17,9.27-16.17,9.27-29.27-3.75l-4.4-4.4c-14.19-14.24-14.19-14.24-4.66-31.64,4.63-8.46,1-17-8.52-19.84-18.75-5.68-18.75-5.68-18.75-25.81V374.15c6.3-1.69,12.25-3.2,18.16-4.89,10.86-3.11,14.09-11.4,8.36-21.27-9.14-15.75-9.14-15.75,3.52-28.48,1-1,1.93-2,2.93-2.93,5.23-5,9.9-13,15.85-14.13,5.6-1,12.56,5.24,18.91,8.33a13.06,13.06,0,0,0,18-7.72c2.06-6.54,3.7-13.21,5.56-20H268.8v43.3c-29.07-6-54.69.34-74.75,23.08-13.18,14.94-18.86,32.74-17.59,52.62C179.29,446.19,213.52,470.53,269,467.59Z"/><path class="cls-2" d="M269.58,397.26c0,13.12-.24,26.25.11,39.36.15,5.78-1.65,8.57-7.49,10.15a51.92,51.92,0,0,1-55.07-19.53,51.17,51.17,0,0,1-.65-60.07,52,52,0,0,1,54.65-20.69c6.81,1.64,8.79,4.81,8.58,11.43C269.28,371,269.58,384.14,269.58,397.26Z"/><path class="cls-2" d="M706.58,253.59c-4,2.73-8.07,7.68-12,7.54-3.46-.12-6.72-5.88-10.07-9.15,3.44-3.52,6.46-9.11,10.45-9.92,3.18-.63,7.53,4.56,11.36,7.17C706.44,250.68,706.51,252.14,706.58,253.59Z"/><path class="cls-2" d="M215.69,595.24c-2.71-4-7.62-8.12-7.46-12,.15-3.46,5.93-6.68,9.22-10,3.5,3.46,9.05,6.52,9.84,10.52.63,3.16-4.59,7.48-7.21,11.28Z"/><path class="cls-1" d="M445.35,428.57V448.1H353.41V428.57Z"/><path class="cls-1" d="M353.14,469.8h92v19.67h-92Z"/><path class="cls-1" d="M353.06,530.84V511.38h92.31v19.46Z"/><path class="cls-1" d="M445.63,553.15v19.11H353.32V553.15Z"/><path class="cls-1" d="M476.5,138.28v19.45h-82V138.28Z"/><path class="cls-1" d="M498.45,138h19.47v19.43H498.45Z"/><path class="cls-1" d="M415.27,696.74V677.29h82v19.45Z"/></svg>