<svg id="Layer_1" data-name="Layer 1" xmlns="http://www.w3.org/2000/svg" viewBox="0 0 886 878"><defs><style>.cls-1{fill:#f56a6a;}.cls-2{fill:#fff;}</style></defs><path class="cls-1" d="M216.45,196.14c0-9,0-17.44,0-25.86.1-12.5,2.87-15.26,15.66-15.27q106.33,0,212.68,0c22.95,0,45.92-.43,68.85.29,5.76.19,13.6,2.38,16.72,6.5C546.3,182.9,567,188.91,592.2,185.63c11.29-1.46,22.93-.3,34.41-.23,12.56.07,15.36,2.86,15.37,15.56q0,116.44,0,232.9v8.06l1.69.93c2.84-4.51,5.76-9,8.5-13.55,4.69-7.81,9.06-15.82,13.93-23.51,9.83-15.55,27.24-20.11,42-11.26,14.63,8.75,19.19,26.57,10.06,42.34-23.67,40.88-47.82,81.48-71.38,122.42a36.59,36.59,0,0,0-4.62,17c-.45,30-.18,60.08-.23,90.12,0,12.54-2.88,15.31-15.58,15.37-14.52.06-29,.25-43.54-.1-5.72-.14-9.65,1.19-12,6.75-12.67,30.06-35.58,50.91-61.92,68.68-5,3.38-10.57,9.18-15.89,3.56-3.34-3.52-4.27-10.74-3.86-16.11a313.2,313.2,0,0,1,5.31-36c1.71-8.74,4.58-17.25,7.18-26.76H254.41c-15.53,0-17.66-2.11-17.7-17.32,0-7.36,0-14.72,0-22.65-3.12-.23-5.38-.54-7.64-.53-9,0-12.71-4.61-12.65-13.29.12-19.22,0-38.45,0-58-2.58-1.29-4.93-2.43-7.24-3.62-14.82-7.63-23-19.76-23-36.44s8.23-28.6,22.77-36.72c3.13-1.75,6.87-5.71,6.94-8.74s-3.49-7.27-6.56-8.95c-14.63-8-23-19.81-23.14-36.49-.12-17.12,7.95-30.16,23.65-36.83,8-3.42,6.46-8.94,6.56-14.68.1-5.57.93-10.48-6.57-13.67-15.71-6.67-23.78-19.71-23.64-36.83s8.6-29.84,24.27-36.49c7.13-3,6.23-7.89,5.85-13S219,276.57,211,273.18c-16.46-7-25.22-20.19-24.75-38.22s10.22-30.16,26.65-37.13C213.8,197.44,214.69,197,216.45,196.14Zm20.31,424.24c2.68.25,4.29.54,5.9.54q145.34,0,290.68-.24c3.39,0,8.07-3,9.92-6q17.28-28,33.33-56.73a34.46,34.46,0,0,0,4.38-16q.39-142.29.19-284.57V246.21H538.08c-27.83,0-27.83,0-27.83-27.44V176H237.77v75.35a21.55,21.55,0,0,0,8.1-9.43c2.83-6.69,7.31-10.06,14.25-7.12,6.65,2.83,6.7,8.84,4.62,14.7-3.91,11-11.52,18.77-22.06,23.89-2.33,1.13-5.59,3.71-5.62,5.68-.38,24.43-.25,48.88-.25,73.32l2.62.86c2.22-3.42,4.95-6.62,6.55-10.31,2.71-6.26,7-9.52,13.48-7.14,7.31,2.7,7.48,9,5.2,15.27-3.87,10.62-10.91,18.79-21.46,23-5.43,2.16-6.63,5.31-6.55,10.63.29,16.87.11,33.75.11,50.63v18.54l3,.75c2.27-3.85,4.8-7.57,6.76-11.57,2.84-5.82,7.86-8.82,13-5.57,3.24,2,6.57,9.07,5.36,12-3.06,7.52-7.15,17.41-13.53,20.24-15.58,6.88-15.34,18.45-14.7,31.71.52,10.78.11,21.6.11,32.4v11.29l2.84.51c2.11-3.27,4.72-6.34,6.21-9.87,2.8-6.65,7.22-10.22,14.17-7.29,7.22,3,6.82,9.47,4.49,15.57-4,10.56-11.55,17.85-21.61,23.1-2.76,1.44-5.7,5.54-5.83,8.54C236.43,590.17,236.76,604.69,236.76,620.38ZM578.54,206.24c-.47.85-.94,1.7-1.4,2.55,4,3.57,7.82,7.43,12.09,10.68,10,7.62,12.6,17.42,12.52,29.93-.53,84-.28,168-.28,252v12.92c13-18.75,21.11-34.81,20.75-56.16-1.33-79.92-.53-159.88-.53-239.82V206.24ZM526,642H257.59v19.48H500.7C518.5,661.47,519.5,660.71,526,642Zm11.53,63.21,133-227-17.43-10.1c-44.46,75.85-88.53,151-133,226.82Zm49.59-44.36H621V606.5l-1.72-.62ZM531.25,193.27v31.64h31ZM676.69,422.91l21.47,12.44c1.32-7.68,3.16-13.49,2.84-19.17-.11-2-6.53-6-8.24-5.19C687.58,413.43,683.3,417.77,676.69,422.91ZM215.81,251.85V220.68C203.32,229.24,203.18,242,215.81,251.85Zm-.18,100.7v-30.9C203.18,331.44,203.34,344.23,215.63,352.55Zm.16,70.7c-12.74,8.83-12.39,24.19,0,30.05Zm0,90.66c-12.65,10-12.47,22.84,0,31.21Zm448.08-62c7.64-.8,10.47,11.53,19,4.15.57-.49-2-6.55-4.4-8.2C674,444.74,667.88,438.23,663.91,451.94Z"/><path class="cls-2" d="M236.76,620.38c0-15.69-.33-30.21.27-44.69.13-3,3.07-7.1,5.83-8.54,10.06-5.25,17.58-12.54,21.61-23.1,2.33-6.1,2.73-12.53-4.49-15.57-7-2.93-11.37.64-14.17,7.29-1.49,3.53-4.1,6.6-6.21,9.87l-2.84-.51V533.84c0-10.8.41-21.62-.11-32.4-.64-13.26-.88-24.83,14.7-31.71,6.38-2.83,10.47-12.72,13.53-20.24,1.21-3-2.12-10-5.36-12-5.13-3.25-10.15-.25-13,5.57-2,4-4.49,7.72-6.76,11.57l-3-.75V435.3c0-16.88.18-33.76-.11-50.63-.08-5.32,1.12-8.47,6.55-10.63,10.55-4.21,17.59-12.38,21.46-23,2.28-6.24,2.11-12.57-5.2-15.27-6.45-2.38-10.77.88-13.48,7.14-1.6,3.69-4.33,6.89-6.55,10.31l-2.62-.86c0-24.44-.13-48.89.25-73.32,0-2,3.29-4.55,5.62-5.68,10.54-5.12,18.15-12.84,22.06-23.89,2.08-5.86,2-11.87-4.62-14.7-6.94-2.94-11.42.43-14.25,7.12a21.55,21.55,0,0,1-8.1,9.43V176H510.25v42.8c0,27.44,0,27.44,27.83,27.44h43.08v11.13q0,142.29-.19,284.57a34.46,34.46,0,0,1-4.38,16q-16,28.74-33.33,56.73c-1.85,3-6.53,6-9.92,6q-145.34.48-290.68.24C241.05,620.92,239.44,620.63,236.76,620.38ZM418.45,286.73H522.78c3,0,6.82,1,8.94-.46,3.5-2.35,8.15-6.27,8.19-9.58s-4.57-7.21-7.94-9.8c-1.73-1.33-5.23-.45-7.92-.45q-104.83,0-209.67,0c-3,0-6.81-.81-8.91.66-3.22,2.24-7.23,6.12-7.27,9.35s3.87,7.22,7,9.53c2.06,1.5,5.87.72,8.9.72Q366.29,286.76,418.45,286.73Zm.65,60.76q54.19,0,108.38,0c6.9,0,12.59-2.14,12.86-9.69.29-8.2-5.51-10.74-12.89-10.64-6.08.08-12.15,0-18.23,0q-97.74,0-195.49.11c-4.18,0-9.25.51-12.25,2.88-2.38,1.87-4.18,8.53-2.77,10.29,2.7,3.37,7.84,6.66,12,6.72C346.84,347.71,383,347.49,419.1,347.49Zm0,40.49q-54.19,0-108.38,0c-6.89,0-12.59,2.11-12.86,9.68-.3,8.2,5.49,10.78,12.87,10.65,3,0,6.08,0,9.12,0H520.38c2.36,0,4.73-.07,7.09,0,6.9.2,12.59-2.11,12.87-9.67.3-8.2-5.5-10.66-12.88-10.65Q473.27,388,419.08,388Zm-.2,81.08H510c6.75,0,13.84,1.2,20.13-.5,4.06-1.1,8.89-6.11,9.66-10.09.48-2.53-5.62-6.65-9.24-9.46-1.27-1-3.93-.25-6-.25H314c-2.36,0-5.48-.85-6.93.33-3.54,2.86-8.29,6.44-8.72,10.18-.33,2.84,4.84,6.9,8.31,9.37,1.82,1.3,5.24.41,7.94.41Zm-70.77,40.47c-12.49,0-25,.08-37.47,0-6.91-.06-12.58,2.15-12.81,9.72-.25,8.21,5.56,10.64,12.93,10.62q37.47-.11,74.94,0c6.9,0,12.57-2.18,12.81-9.74.25-8.2-5.57-10.65-12.93-10.6C373.09,509.6,360.6,509.53,348.11,509.53Z"/><path class="cls-2" d="M578.54,206.24h43.15V218.3c0,79.94-.8,159.9.53,239.82.36,21.35-7.7,37.41-20.75,56.16V501.36c0-84-.25-168,.28-252,.08-12.51-2.47-22.31-12.52-29.93-4.27-3.25-8.07-7.11-12.09-10.68C577.6,207.94,578.07,207.09,578.54,206.24Z"/><path class="cls-2" d="M526,642c-6.46,18.72-7.46,19.48-25.26,19.48H257.59V642Z"/><path class="cls-2" d="M537.49,705.2l-17.34-10.31c44.42-75.8,88.49-151,133-226.82l17.43,10.1Z"/><path class="cls-2" d="M587.08,660.84l32.22-55,1.72.62v54.34Z"/><path class="cls-2" d="M531.25,193.27l31,31.64h-31Z"/><path class="cls-2" d="M676.69,422.91c6.61-5.14,10.89-9.48,16.07-11.92,1.71-.8,8.13,3.17,8.24,5.19.32,5.68-1.52,11.49-2.84,19.17Z"/><path class="cls-2" d="M663.91,451.94c4-13.71,10.08-7.2,14.64-4.05,2.38,1.65,5,7.71,4.4,8.2C674.38,463.47,671.55,451.14,663.91,451.94Z"/><path class="cls-1" d="M418.45,286.73q-52.15,0-104.32,0c-3,0-6.84.78-8.9-.72-3.16-2.31-7.07-6.3-7-9.53s4.05-7.11,7.27-9.35c2.1-1.47,5.88-.66,8.91-.66q104.83,0,209.67,0c2.69,0,6.19-.88,7.92.45,3.37,2.59,8,6.5,7.94,9.8s-4.69,7.23-8.19,9.58c-2.12,1.43-5.9.45-8.94.46Z"/><path class="cls-1" d="M419.1,347.49c-36.13,0-72.26.22-108.38-.29-4.17-.06-9.31-3.35-12-6.72-1.41-1.76.39-8.42,2.77-10.29,3-2.37,8.07-2.87,12.25-2.88q97.74-.24,195.49-.11c6.08,0,12.15.07,18.23,0,7.38-.1,13.18,2.44,12.89,10.64-.27,7.55-6,9.71-12.86,9.69Q473.29,347.43,419.1,347.49Z"/><path class="cls-1" d="M419.08,388q54.19,0,108.38,0c7.38,0,13.18,2.45,12.88,10.65-.28,7.56-6,9.87-12.87,9.67-2.36-.07-4.73,0-7.09,0H319.83c-3,0-6.08,0-9.12,0-7.38.13-13.17-2.45-12.87-10.65.27-7.57,6-9.69,12.86-9.68Q364.9,388.05,419.08,388Z"/><path class="cls-1" d="M418.88,469.05H314.55c-2.7,0-6.12.89-7.94-.41-3.47-2.47-8.64-6.53-8.31-9.37.43-3.74,5.18-7.32,8.72-10.18,1.45-1.18,4.57-.33,6.93-.33H524.64c2,0,4.68-.74,6,.25,3.62,2.81,9.72,6.93,9.24,9.46-.77,4-5.6,9-9.66,10.09-6.29,1.7-13.38.5-20.13.5Z"/><path class="cls-1" d="M348.11,509.53c12.49,0,25,.07,37.47,0,7.36-.05,13.18,2.4,12.93,10.6-.24,7.56-5.91,9.76-12.81,9.74q-37.47-.11-74.94,0c-7.37,0-13.18-2.41-12.93-10.62.23-7.57,5.9-9.78,12.81-9.72C323.13,509.61,335.62,509.53,348.11,509.53Z"/></svg>