<svg id="Layer_1" data-name="Layer 1" xmlns="http://www.w3.org/2000/svg" viewBox="0 0 886 878"><defs><style>.cls-1{fill:#f56a6a;}.cls-2{fill:#fff;}</style></defs><path class="cls-1" d="M319.69,188.4c-22,0-44.07-.3-66.09.34-3.16.09-6.78,4.25-9.19,7.31-9.45,12-24.62,15.94-37.78,9.38-12.81-6.38-19.62-21.11-16-34.63a30.31,30.31,0,0,1,30.68-22.64c10.05.51,18.27,5,23.46,13.46,3,4.91,6.21,6.68,11.92,6.64q58.36-.36,116.74,0c5.81,0,8.57-1.44,10.77-7.4,7.51-20.31,25.53-32.64,46.15-32.89,21.46-.26,39.66,11.54,47.61,32.18,2.54,6.59,5.8,8.2,12.38,8.15,38.58-.3,77.16,0,115.73-.41,3.73,0,8.58-2.79,10.9-5.83,8.82-11.53,21.41-16.59,34.38-12.61a30.1,30.1,0,0,1-.12,57.75c-13,3.92-25.5-1-34.17-13-1.74-2.39-4.66-5.52-7.09-5.57-22.35-.43-44.71-.25-67.54,1.36,3.71,1.87,7.41,3.77,11.14,5.61Q685,260.83,713.4,404.73c1.52,7.75,4.27,11.27,12.29,10.12,3.29-.47,6.7,0,10-.06,8.2-.05,12.56,3.86,12.58,12.19,0,18.45,0,36.9.08,55.35,0,8.68-4.09,12.74-12.82,13.17-19.85,1-19.85,1.14-24.11,21.14C687.35,629.9,595.23,718.2,480.9,737.67c-2.91.5-5.78,1.26-9.32,2,0,6.86,0,13.19,0,19.51.06,8.65-3.94,13-12.83,12.95-18.12-.13-36.23-.19-54.35,0-9.31.11-13.32-4.1-13.49-13.34-.37-18.93-.56-18.93-19.42-23.05C256,710.59,170.1,621.85,149.08,505.52c-1.38-7.63-4-11.45-12.18-10.23-3.28.5-6.7,0-10.05.06-8.17.06-12.6-3.78-12.62-12.14q-.06-28.17,0-56.36c0-8.33,4.52-11.84,12.65-12.21,19.92-.93,19.65-1.13,24-19.87q32-136.26,157.26-198.75c3.89-1.94,7.84-3.76,11.76-5.64C319.84,189.72,319.76,189.06,319.69,188.4ZM168.09,414.09c4.88.24,9.44.65,14,.67,8.17,0,12.64,3.78,12.65,12.13q.06,28.19,0,56.36c0,8.36-4.5,12.08-12.66,12.14-4.53,0-9.06.49-13.68.76,17.45,127,126.39,211.74,222.6,221.21,0-4.72,0-9.33,0-13.94.1-7.77,4.09-11.8,11.85-11.82,19.12,0,38.24-.08,57.36,0,7.28.05,11.1,4.05,11.28,11.31.12,4.86,0,9.72,0,14.74C580.31,704.67,678.83,612.44,694,496c-4.31-.21-8.55-.64-12.78-.56-9.23.17-13.57-4.12-13.5-13.4.14-18.11.08-36.23,0-54.34,0-8.76,4.19-12.93,12.93-12.95,4.47,0,8.94-.51,13.46-.79-12.72-104.64-103.55-200.4-207-219.79-5.86-1.1-8.13.72-10.6,5.75-9.09,18.51-24.39,28.45-44.94,28.61s-36.07-9.69-45.2-28.11c-3-6.08-6-7.33-12.32-6C267.91,217.66,184.7,305.57,168.09,414.09Zm293.28-236a30.11,30.11,0,1,0-30,30.29A30.34,30.34,0,0,0,461.37,178.09ZM412,712v39.32h38.63V712ZM135.05,475c11.9,0,23.2.21,34.47-.22,1.69-.06,4.62-3,4.68-4.7.43-11.27.22-22.56.22-34.44H135.05Zm592.6-39H688.86v38.39h38.79ZM231.39,180.37l-.2-4.28c-3.67-2.57-7.84-7.67-10.9-7.07-3.89.75-8.82,5.73-9.59,9.63-.49,2.49,5.61,8.73,9,8.89C223.45,187.72,227.47,183,231.39,180.37ZM654,181l.09-4.2c-3.51-2.82-7.36-8.19-10.46-7.79-3.93.5-9.16,5.2-10.16,9-.65,2.47,5.07,9.07,8.41,9.43C645.6,187.94,649.9,183.42,654,181Z"/><path class="cls-2" d="M461.37,178.09a30.11,30.11,0,1,1-60.21.3,30.11,30.11,0,0,1,60.21-.3Z"/><path class="cls-2" d="M412,712h38.63v39.32H412Z"/><path class="cls-2" d="M135.05,475V435.64h39.37c0,11.88.21,23.17-.22,34.44-.06,1.7-3,4.64-4.68,4.7C158.25,475.21,147,475,135.05,475Z"/><path class="cls-2" d="M727.65,436v38.39H688.86V436Z"/><path class="cls-2" d="M231.39,180.37c-3.92,2.6-7.94,7.35-11.73,7.17-3.35-.16-9.45-6.4-9-8.89.77-3.9,5.7-8.88,9.59-9.63,3.06-.6,7.23,4.5,10.9,7.07Z"/><path class="cls-2" d="M654,181c-4.06,2.38-8.36,6.9-12.12,6.49-3.34-.36-9.06-7-8.41-9.43,1-3.85,6.23-8.55,10.16-9,3.1-.4,6.95,5,10.46,7.79Z"/><path class="cls-1" d="M430.25,631.23c-28.17,0-56.34.07-84.52,0-13.81,0-17.31-5-13-18.33,4.8-14.64,10.2-29.11,14.42-43.92a24.45,24.45,0,0,0-.81-15.15c-10.58-25-22.23-49.53-32.62-74.6-2.14-5.18-2.39-12.76-.25-17.86C341.87,394,370.89,327,399.5,259.76c3.31-7.8,7.79-11.73,16.62-11.24,10.7.6,21.55-.64,32.15.58,4.69.54,11.26,4.15,13,8.11q45.06,103.19,88.74,207c1.76,4.18.7,10.61-1.2,15.07-10.6,25-22.1,49.59-32.66,74.59a24.48,24.48,0,0,0-.78,15.16c4.22,14.8,9.62,29.27,14.41,43.92,4.36,13.28.83,18.26-13,18.3C487.94,631.28,459.09,631.23,430.25,631.23ZM444.3,269l-2.2.52a17.6,17.6,0,0,0-.66,3.4c-.05,45.62-.17,91.25.22,136.88,0,2.67,3.73,6.6,6.61,7.77,23.32,9.45,37.08,32.72,32.63,56.15-4.65,24.48-25.17,41.71-49.66,41.69s-45-17.31-49.62-41.73c-4.35-23.14,8.89-46.81,31.95-55.34,6.39-2.37,7.77-5.49,7.73-11.63-.22-42.94-.1-85.89-.15-128.83,0-2.77-.43-5.54-.93-11.4-2.75,4.8-4.21,6.85-5.18,9.11q-40.47,94.24-80.67,188.62a17.36,17.36,0,0,0,.24,12.21c9.55,22.53,19.86,44.73,29.48,67.23,2.37,5.52,5.52,7.19,11.33,7.16,37.24-.24,74.48-.32,111.72.05,6.62.07,9.37-2.62,11.74-8.13,9.26-21.56,19.22-42.83,28.11-64.53,1.89-4.61,2.11-11.32.21-15.85-26-61.81-52.44-123.4-78.82-185C447.17,274.46,445.67,271.74,444.3,269Zm63.15,341.54c-4.1-12.52-7.69-24.3-12-35.81-.7-1.89-4.56-3.68-7-3.7q-57.24-.35-114.47,0c-2.4,0-6.21,1.87-6.94,3.78-4.33,11.49-8,23.26-12.09,35.73ZM461.36,465a30.1,30.1,0,1,0-30,30.11A30.21,30.21,0,0,0,461.36,465Z"/><path class="cls-2" d="M444.3,269c1.37,2.76,2.87,5.48,4.08,8.31,26.38,61.64,52.85,123.23,78.82,185,1.9,4.53,1.68,11.24-.21,15.85-8.89,21.7-18.85,43-28.11,64.53-2.37,5.51-5.12,8.2-11.74,8.13-37.24-.37-74.48-.29-111.72-.05-5.81,0-9-1.64-11.33-7.16-9.62-22.5-19.93-44.7-29.48-67.23a17.36,17.36,0,0,1-.24-12.21q40-94.45,80.67-188.62c1-2.26,2.43-4.31,5.18-9.11.5,5.86.93,8.63.93,11.4.05,42.94-.07,85.89.15,128.83,0,6.14-1.34,9.26-7.73,11.63-23.06,8.53-36.3,32.2-31.95,55.34,4.59,24.42,25.15,41.72,49.62,41.73s45-17.21,49.66-41.69c4.45-23.43-9.31-46.7-32.63-56.15-2.88-1.17-6.59-5.1-6.61-7.77-.39-45.63-.27-91.26-.22-136.88a17.6,17.6,0,0,1,.66-3.4Z"/><path class="cls-2" d="M507.45,610.52H355c4.13-12.47,7.76-24.24,12.09-35.73.73-1.91,4.54-3.76,6.94-3.78q57.22-.35,114.47,0c2.42,0,6.28,1.81,7,3.7C499.76,586.22,503.35,598,507.45,610.52Z"/><path class="cls-2" d="M461.36,465a30.1,30.1,0,1,1-30.23-29.91A30.11,30.11,0,0,1,461.36,465Z"/></svg>