<svg id="Layer_1" data-name="Layer 1" xmlns="http://www.w3.org/2000/svg" viewBox="0 0 886 878"><defs><style>.cls-1{fill:#f56a6a;}.cls-2{fill:#fff;}</style></defs><path class="cls-1" d="M585.42,566c-2.08,27-1.23,54.68-6.8,81C564.07,715.57,497.32,764.23,428,759.75c-72.17-4.66-132.23-60.33-137.82-131.53C287,587.16,288.9,545.7,289,504.42c0-2.38,4.45-6.74,6.92-6.8,21.8-.54,43.63-.13,65.44-.43,7.51-.11,7.77,4.11,7.76,9.69-.08,35.58-.53,71.17.15,106.75.87,45.14,44.7,75.89,87.63,62.15,27-8.66,45.73-33.81,46-63.21.37-34.57.45-69.15-.09-103.72-.14-9.49,2.92-12,12-11.76,19.79.61,39.6.41,59.4.08,7-.12,9.45,2.32,9.34,9.31-.33,19.8-.12,39.61-.12,59.42ZM306.16,602h.07c0,4.7-.12,9.41,0,14.1,1.62,57.2,41,107.07,96,121.72,55.89,14.88,114.19-8.89,144.86-57.77,20.41-32.53,19.68-68.26,18.48-104.27-.06-1.83-4.19-4.91-6.57-5-10-.58-20.14,0-30.2-.38-6.88-.28-8.62,2.84-8.5,9,.25,12.42.41,24.86-.12,37.27-1.85,42.75-36.09,76.65-80.14,79.7-40.48,2.81-79.52-27.1-86.25-67.83-2.66-16.07-1.74-32.76-2-49.18-.09-6.22-1.71-9.3-8.55-9-9.72.42-19.48.37-29.21,0-6.32-.22-8.21,2.61-8,8.44C306.36,586.54,306.16,594.28,306.16,602Zm22.41-48.87c23.2,0,23.21,0,23.18-23.37,0-2.34-.15-4.69,0-7,.35-5.36-1.75-8.15-7.43-8.08-10.35.13-20.75-.43-31,.38-2.54.2-5.53,4.17-6.88,7.07-1.15,2.47-.26,5.9-.26,8.91C306.13,553.13,306.13,553.13,328.57,553.13Zm215.07-38.49c-4.34,0-8.71.31-13-.07-7.87-.69-10.91,2.56-10.3,10.43a191.34,191.34,0,0,1,.07,20c-.14,5.28,1.64,8.19,7.42,8.09,10.36-.17,20.75.41,31.05-.39,2.54-.2,5.54-4.14,6.89-7,1.16-2.47.28-5.9.28-8.91C566,514.63,566,514.63,543.64,514.64Z"/><path class="cls-1" d="M539.07,221c-.6,57.15-46.7,102.2-104.11,101.75s-102.69-47.13-101.86-105c.82-56.65,48-102.51,104.61-101.71C494.14,116.8,539.67,163.94,539.07,221ZM366.72,267.2c5.73-17.27,15.31-30.22,28.9-40.39,1.81-1.35,1.79-5.75,1.82-8.75.11-11.3-2-23,.22-33.83,4.12-19.83,23.59-32.19,43.1-29.8,20.24,2.48,35.19,19,35.23,40,0,9.3-4.3,19.62-1.45,27.62,2.95,8.24,12.27,14.18,18.71,21.21a24.17,24.17,0,0,1,3.43,4.95c3.21,6,6.29,12.12,9.6,18.53,23.71-28.68,21-79.84-11.81-110.11-34.55-31.88-87.67-30.24-120.61,3.78C344.56,190.64,343.07,240.48,366.72,267.2Zm68.88,38.19c17.35.49,33-4.82,47.58-13.84,5.43-3.35,7.78-7.22,6.46-14.09a56.41,56.41,0,0,0-19.22-33.21c-5.11-4.41-9.55-5.68-16.1-1.8-10.34,6.14-21.8,6.12-33,1.76-13.73-5.35-16.81-5.36-25.9,6.56-5.34,7-8.79,15.6-12.24,23.84-3.36,8-.26,13.79,7.49,18.1C404.75,300.53,419.35,305.73,435.6,305.39ZM413.24,199.27c-.08,18.79,6.32,28.55,19.69,30,12.15,1.32,23.2-5.11,25-16.74,2.93-18.73,2.17-32.57-13.45-39.14C428,166.43,413.34,178.64,413.24,199.27Z"/><path class="cls-1" d="M551.32,307.84a103.1,103.1,0,0,1,103-103.21c57,0,104.05,47.17,103.72,104-.33,56.44-47.27,102.8-104,102.67A103.05,103.05,0,0,1,551.32,307.84ZM584.38,355c2.71-5.47,5-11,8.07-16s6.36-10.82,11-14.16c10.6-7.55,15.33-16,10.88-29.17-1.53-4.5-.52-10-.13-15,1.65-21.28,18-37.23,38.55-37.92,21.06-.7,38.42,13.41,41,34.87,1.14,9.48-.67,19.29-.92,28.95-.06,2.76-.35,7,1.2,8.08,14.38,10.22,24.1,23.84,29.78,41,22.35-24.69,23.83-76.6-9.16-108.85a85.74,85.74,0,0,0-121.3.77C564.45,276.5,559.72,330.23,584.38,355Zm70.32,40.17c9.42-2.08,19.2-3.18,28.21-6.43,30.39-11,33.36-18.45,12.59-49.39-1.82-2.72-4.74-4.72-7.19-7-4.62-4.3-9-5.38-15.21-1.79-10.73,6.26-23.19,7.61-33.72,1.45-11.48-6.71-18.83-2.27-24.58,6.06S605,356,601,365.44c-2.53,6,.18,10.66,5.9,14.21A101.72,101.72,0,0,0,654.7,395.16ZM631.42,288.71c0,16.66,6,26.51,17.87,28.65,9.27,1.67,17.87-.27,23.17-8.48,7.5-11.62,6.82-24.52,1.79-36.66-3.63-8.75-11.67-12.64-21.36-12.11C639.13,260.85,631.46,271.1,631.42,288.71Z"/><path class="cls-1" d="M320.84,308.17a103,103,0,0,1-103,103.08c-57,0-103.95-47.12-103.62-104,.32-56.32,47.41-102.76,104-102.62C275,204.78,320.92,251.07,320.84,308.17ZM287.4,355.38c25-25.14,20.31-78.86-8.62-107.84a85.79,85.79,0,0,0-121.31-.79C124.37,279.12,126,331,148.33,355.63c5.66-17.19,15.45-30.74,29.74-41.05,1.66-1.2,1-5.93,1-9,.09-11-1.58-22.25.37-32.87,3.34-18.23,20.21-30.21,38.92-30,18.55.23,35.15,12.78,38.06,31.06,1.7,10.69,0,21.9,0,32.88,0,2.75-.43,7,1.08,8C271.93,324.82,281.4,338.62,287.4,355.38Zm-66.18,38.55c14.25-.05,30.51-4.87,44.69-15.23,3-2.22,5.63-7.68,5.31-11.38-1.34-15.56-9.35-27.85-22.09-36.61-2.57-1.77-7.8-2.06-10.64-.66-13.65,6.73-26.79,6.83-40.63.44-3.34-1.55-9.27-1.12-12.31.93a47.81,47.81,0,0,0-21.21,35c-.46,3.93,2.22,10,5.43,12.3C184,389,200.21,394,221.22,393.93Zm19.46-104.32c0-2.12.12-4.48,0-6.82-.82-13.22-9.87-22.41-22.28-22.71s-22,8.23-23.2,21.58a70.61,70.61,0,0,0,.54,18,22.11,22.11,0,0,0,30.84,16.52C238.09,311.26,241.44,301.55,240.68,289.61Z"/><path class="cls-1" d="M455.4,340.84c-4.24,8.31-7.07,16-11.71,22.47-10.32,14.33-10.68,20.09.18,33.88C457,413.9,457,430.66,443.81,447.7a64.73,64.73,0,0,0-5.33,7.29c-5.63,9.88-6.29,10.2-21.45,6.41,3.88-7.64,6.68-15.39,11.3-21.82,10.43-14.52,10.84-20.07.1-33.86-13.53-17.37-13.38-33.86.41-51.3,1.66-2.1,4-4.08,4.65-6.49C436.62,336.54,444.57,339,455.4,340.84Z"/><path class="cls-1" d="M375.45,353.35c-3.94,8.2-6.49,16-11,22.37-10.26,14.48-10.73,20.24-.23,33.86,13.2,17.11,13.06,34.06-.41,51.3-1.44,1.85-3.51,3.56-4.08,5.66-2.84,10.46-9.89,11-19.17,8.32-1.91-8.5,2.35-15.17,7.19-21.53,11.8-15.53,11.89-21,.24-36.26-11.86-15.56-11.66-33.38.51-48.95,1.86-2.36,4.52-4.57,5.24-7.27C356.66,349.8,364.22,351.08,375.45,353.35Z"/><path class="cls-1" d="M534.14,354.87c-3.66,7.15-6.55,14.85-11.16,21.33-9.55,13.41-10,20.31,0,33.2,13.36,17.26,13.32,34.13-.07,51.27a59.6,59.6,0,0,0-4.66,6.53c-5.57,9.6-5.52,9.63-18.49,7.83-2.61-8.63,2.19-15.18,6.84-21.54,12.15-16.59,12.23-20.11-.11-37-11.1-15.18-11-32.37.12-47.39,3.14-4.26,4.84-10.05,8.78-13.13s9.93-3.74,15-5.46C531.67,352,532.91,353.42,534.14,354.87Z"/><path class="cls-2" d="M306.16,602c0-7.72.2-15.46-.07-23.17-.21-5.83,1.68-8.66,8-8.44,9.73.34,19.49.39,29.21,0,6.84-.29,8.46,2.79,8.55,9,.24,16.42-.68,33.11,2,49.18,6.73,40.73,45.77,70.64,86.25,67.83,44.05-3,78.29-37,80.14-79.7.53-12.41.37-24.85.12-37.27-.12-6.21,1.62-9.33,8.5-9,10.06.42,20.16-.2,30.2.38,2.38.13,6.51,3.21,6.57,5,1.2,36,1.93,71.74-18.48,104.27-30.67,48.88-89,72.65-144.86,57.77-55-14.65-94.41-64.52-96-121.72-.13-4.69,0-9.4,0-14.1Z"/><path class="cls-2" d="M328.57,553.13c-22.44,0-22.44,0-22.43-22.11,0-3-.89-6.44.26-8.91,1.35-2.9,4.34-6.87,6.88-7.07,10.29-.81,20.69-.25,31-.38,5.68-.07,7.78,2.72,7.43,8.08-.15,2.33,0,4.68,0,7C351.78,553.13,351.77,553.13,328.57,553.13Z"/><path class="cls-2" d="M543.64,514.63c22.4,0,22.4,0,22.39,22.16,0,3,.88,6.44-.28,8.91-1.35,2.9-4.35,6.84-6.89,7-10.3.8-20.69.22-31.05.39-5.78.1-7.56-2.81-7.42-8.09a191.34,191.34,0,0,0-.07-20c-.61-7.87,2.43-11.12,10.3-10.43C534.93,515,539.3,514.64,543.64,514.63Z"/><path class="cls-2" d="M366.72,267.2c-23.65-26.72-22.16-76.56,7.14-106.83,32.94-34,86.06-35.66,120.61-3.78C527.29,186.86,530,238,506.28,266.7c-3.31-6.41-6.39-12.5-9.6-18.53a24.17,24.17,0,0,0-3.43-4.95c-6.44-7-15.76-13-18.71-21.21-2.85-8,1.47-18.32,1.45-27.62,0-20.93-15-37.48-35.23-40-19.51-2.39-39,10-43.1,29.8-2.25,10.82-.11,22.53-.22,33.83,0,3,0,7.4-1.82,8.75C382,237,372.45,249.93,366.72,267.2Z"/><path class="cls-2" d="M435.61,305.39c-16.26.34-30.86-4.86-44.91-12.68-7.75-4.31-10.85-10.08-7.49-18.1,3.45-8.24,6.9-16.84,12.24-23.84,9.09-11.92,12.17-11.91,25.9-6.56,11.17,4.36,22.63,4.38,33-1.76,6.55-3.88,11-2.61,16.1,1.8a56.41,56.41,0,0,1,19.22,33.21c1.32,6.87-1,10.74-6.46,14.09C468.57,300.57,453,305.88,435.61,305.39Z"/><path class="cls-2" d="M413.24,199.27c.1-20.63,14.71-32.84,31.26-25.88C460.12,180,460.88,193.8,458,212.53c-1.82,11.63-12.87,18.06-25,16.74C419.56,227.82,413.16,218.06,413.24,199.27Z"/><path class="cls-2" d="M584.38,355c-24.66-24.76-19.93-78.49,9-107.45a85.74,85.74,0,0,1,121.3-.77c33,32.25,31.51,84.16,9.16,108.85-5.68-17.17-15.4-30.79-29.78-41-1.55-1.1-1.26-5.32-1.2-8.08.25-9.66,2.06-19.47.92-28.95-2.57-21.46-19.93-35.57-41-34.87-20.58.69-36.9,16.64-38.55,37.92-.39,5-1.4,10.51.13,15,4.45,13.13-.28,21.62-10.88,29.17-4.68,3.34-7.86,9.08-11,14.16S587.09,349.52,584.38,355Z"/><path class="cls-2" d="M654.7,395.16a101.72,101.72,0,0,1-47.78-15.51c-5.72-3.55-8.43-8.22-5.9-14.21,4-9.41,8-19,13.78-27.38s13.1-12.77,24.58-6.06c10.53,6.16,23,4.81,33.72-1.45,6.16-3.59,10.59-2.51,15.21,1.79,2.45,2.28,5.37,4.28,7.19,7,20.77,30.94,17.8,38.43-12.59,49.39C673.9,392,664.12,393.08,654.7,395.16Z"/><path class="cls-2" d="M631.42,288.71c0-17.61,7.71-27.86,21.47-28.6,9.69-.53,17.73,3.36,21.36,12.11,5,12.14,5.71,25-1.79,36.66-5.3,8.21-13.9,10.15-23.17,8.48C637.41,315.22,631.39,305.37,631.42,288.71Z"/><path class="cls-2" d="M287.4,355.38c-6-16.76-15.47-30.56-29.93-40.72-1.51-1.05-1.09-5.27-1.08-8,0-11,1.74-22.19,0-32.88-2.91-18.28-19.51-30.83-38.06-31.06-18.71-.23-35.58,11.75-38.92,30-1.95,10.62-.28,21.89-.37,32.87,0,3.1.65,7.83-1,9-14.29,10.31-24.08,23.86-29.74,41.05-22.29-24.59-24-76.51,9.14-108.88a85.79,85.79,0,0,1,121.31.79C307.71,276.52,312.44,330.24,287.4,355.38Z"/><path class="cls-2" d="M221.22,393.93c-21,0-37.27-4.89-51.45-15.19-3.21-2.34-5.89-8.37-5.43-12.3a47.81,47.81,0,0,1,21.21-35c3-2.05,9-2.48,12.31-.93,13.84,6.39,27,6.29,40.63-.44,2.84-1.4,8.07-1.11,10.64.66,12.74,8.76,20.75,21.05,22.09,36.61.32,3.7-2.27,9.16-5.31,11.38C251.73,389.06,235.47,393.88,221.22,393.93Z"/><path class="cls-2" d="M240.68,289.61c.76,11.94-2.59,21.65-14.12,26.6a22.11,22.11,0,0,1-30.84-16.52,70.61,70.61,0,0,1-.54-18c1.15-13.35,10.65-21.88,23.2-21.58s21.46,9.49,22.28,22.71C240.8,285.13,240.68,287.49,240.68,289.61Z"/></svg>