<svg id="Layer_1" data-name="Layer 1" xmlns="http://www.w3.org/2000/svg" viewBox="0 0 886 878"><defs><style>.cls-1{fill:#fff;}.cls-2{fill:#f56a6a;}</style></defs><path class="cls-1" d="M342.47,258.47c-.4,13.53-.17,27.08-.17,40.62q0,54.36,0,108.72c12-28,27.53-52,49.76-71.83,2.9-2.57,4.43-8,4.51-12.18.45-21.27.41-42.56.14-63.84-.12-9.8.19-18.83,14.56-20.11l-41.87-44.11L327.72,240C340.88,241.52,342.75,249,342.47,258.47Z"/><path class="cls-1" d="M655.07,292.19c-.34,43.05-.14,86.1-.14,129.15V434l54.78,7.92c0-7.48-.09-14.75,0-22l.74-43.62q-1.28-47.08-.17-94.22c.1-4.37,5.9-8.61,10.35-14.67l-38.31-41-40.8,43.31C654.45,273.05,655.16,282,655.07,292.19Z"/><path class="cls-1" d="M498.68,180.86c-.24,34.47-.11,68.94-.07,103.41,0,4.1.34,8.19.5,11.63L553.33,306V292.25c0-35.24-.13-70.49-.07-105.73,0-10.19-2.79-21.88,14-24l-41.4-43.87L484.09,163C497.24,164.55,498.75,171.82,498.68,180.86Z"/><path class="cls-1" d="M583.64,541.41a49.53,49.53,0,0,0-50.55,49.53c-.23,28.23,21.43,50.53,49.32,50.76a50.15,50.15,0,1,0,1.23-100.29Z"/><path class="cls-1" d="M186,169.25c-.34,26-.17,52-.21,78,0,1.27,0,2.54,0,3.81,0,.06,0,.12,0,.18,0,50.42,0,156.77,0,207.19v11.47c17.52-14,34.52-27.14,50.83-41.08,2.75-2.36,3.49-8.21,3.5-12.45q.28-125.67,0-251.33c0-9.37.91-17.37,14.54-19.38l-41.65-44.21-40.54,43.07C186.59,148.3,186.14,158.58,186,169.25Z"/><path class="cls-1" d="M712.7,468.29C693.08,460,672.49,457.22,651.27,458c-14.83.52-16.7-1.36-18.43-15.72-8.19-67.69-62-119.06-128.54-122.6-68.14-3.63-126.07,40.51-141.79,108-3.19,13.73-6.91,15.88-20.43,11.85-76.37-22.77-148.42,25.1-155.86,104.33-1.24,13.22-5.1,19.39-18.84,22.5-44.92,10.15-72.77,51-67.41,96.2,5.27,44.47,42.29,77.06,88.94,77.17,107,.26,214.1,0,321.15,0,5,0,10.63-1,14.91.93l48.49-.85c29.08-.11,58.18.22,87.26-.27,68.2-1.16,124-48.35,137-115.41C810.23,559.93,774.51,494.34,712.7,468.29ZM406.92,626.92c-3.23,19.1-19.15,33.59-40.3,36.13-20.83,2.49-39-3.66-54.56-17.73-5.8-5.26-9-11.59-2.69-18.05,5.79-5.89,12-3.3,17.38,1.75,10.91,10.16,24,14.29,38.55,12,9.74-1.51,18-6.57,19.43-17.28,1.4-10.26-6.17-15.41-14.15-19C360,600,349,596.06,338.3,591.59c-18.59-7.76-28-22-25.48-38.25,2.64-17.28,17.11-30.76,35.72-33.16,3.45-.45,6.95-.55,10.42-.82.39-.82.77-1.64,1.15-2.46,12.26,5.23,24.75,10,36.66,15.9,6.17,3.05,8.74,9.28,4.48,15.73s-9.87,5.23-16.41,2.61c-9.85-3.94-20.06-8.08-30.44-9.24-8.49-.94-17,3.22-19.06,13.5-2.11,10.77,5.84,13.84,13.72,16.9,10.11,3.92,20.29,7.72,30.15,12.21C399.44,593.7,409.8,609.91,406.92,626.92Zm75-46.17c7.43-.1,13.69,2,13.92,10.37.25,9.18-6.34,11.31-14.21,11.23-10.36-.1-20.72,0-31.81,0v39c11.38,0,22.81.15,34.24-.05,8.16-.14,15.48,1.31,15.43,11.23-.06,9.31-7.16,10.69-14.81,10.63q-22.08-.15-44.17,0c-9.16.06-13.69-4.53-13.71-13.47q-.1-58.12,0-116.24c0-8.93,4.57-13.44,13.78-13.36,15.5.14,31,0,46.49,0,7.29,0,12.33,3.1,12.44,10.69s-5,10.86-12.21,10.89c-12,.06-23.94,0-37.52,0v39.18C460.55,580.78,471.25,580.88,481.93,580.75Zm101.47,83c-40.09-.11-72.95-32.77-72.84-72.4.1-39.41,32.44-71.6,72.06-71.74,40.43-.15,72.31,31.55,72.56,72.15C655.43,631,622.6,663.9,583.4,663.79Z"/><path class="cls-2" d="M709.7,377.05q-1.26-47.08-.17-94.21c.1-4.37,5.9-8.61,10.36-14.68l-38.31-41-40.8,43.3c12.9,3.33,13.6,12.24,13.52,22.46-.34,43.05-.15,86.11-.14,129.16v12.66l54.78,7.92c0-7.49-.09-14.76,0-22m-136.28,320c29.09-.12,58.18.22,87.27-.28C728.14,739.2,784,692,797,625c12.48-64.25-23.24-129.84-85.05-155.89-19.62-8.28-40.2-11.07-61.43-10.33-14.83.51-16.69-1.37-18.43-15.72-8.19-67.7-62-119.06-128.53-122.6-68.15-3.64-126.08,40.51-141.79,108-3.2,13.73-6.91,15.89-20.44,11.86-76.36-22.78-148.42,25.1-155.86,104.33-1.24,13.22-5.09,19.39-18.83,22.49-44.93,10.16-72.78,51-67.42,96.21,5.27,44.47,42.29,77.06,88.94,77.17,107.05.26,214.1,0,321.15,0,5,0,10.64-1,14.91.92M524.1,762c-2.93,1.73-7.56.76-11.43.76-107.82,0-215.65.15-323.47-.11-57.84-.14-103.16-39-112-95-8.16-52,24.31-103,77.56-120.33,8.3-2.71,8.31-7.47,8.3-13.9Q163,431,163,328.58c0-7,.06-69.89-.07-76.87-.14-8.12,22.11-7.64,22.11.26,0,50.42,0,156.77,0,207.19v11.48c17.51-14,34.51-27.14,50.82-41.09,2.75-2.35,3.49-8.2,3.5-12.44q.3-125.67,0-251.34c0-9.36.9-17.36,14.53-19.37-14.58-15.49-27.68-29.39-41.65-44.21l-40.54,43.07c14.08,3.82,13.63,14.1,13.49,24.76-.34,26-.16,52-.2,78,0,3.11.06,6.22-.13,9.31-.45,7-21.74,6.53-21.76-.57-.1-24.83-.58-49.66,0-74.47.25-9.95-2.16-13.83-12.79-13.43-5.14.19-13.4-3.1-14.88-6.9-1.56-4,2-11.67,5.59-15.67,19.47-21.6,39.59-42.62,59.61-63.72,9.27-9.77,13.93-9.87,23.06-.26,20.31,21.36,40.65,42.7,60.42,64.56,3.39,3.75,6.92,11.62,5.2,14.68-2.28,4.07-9.49,5.78-14.89,7.56-3.47,1.15-7.49.59-12,.84V416.64l56.13-5.58c.26-3.57.77-7.33.77-11.1,0-41.89-.22-83.78.17-125.66.09-8.78-2.72-11.18-11.28-11.43-5.74-.17-11.38-4.05-17.06-6.27,2.26-5.7,3.16-12.6,7-16.89,18.89-21.07,38.53-41.49,58-62.06,10.52-11.13,14.37-11.23,24.65-.4,20.29,21.38,40.68,42.67,60.39,64.57,3.25,3.61,5.47,10.85,4.08,15.07-1.06,3.22-8.69,6.25-13.18,6-11.19-.69-15.1,3-14.24,14.31,1,12.67.22,25.47.22,38.63l57.08-18.15V186.25c-6.21,0-11.92.43-17.55-.09-10.4-1-15-10.65-8.06-18.28,22.21-24.35,44.76-48.41,68-71.73,2.64-2.64,13-2.13,15.91.78,22.7,22.8,44.63,46.38,66.29,70.19,2.51,2.76,3.67,9.16,2.22,12.44s-6.77,5.55-10.8,6.48c-4.75,1.1-10,.26-15.94.26-.34,4-.85,7.36-.86,10.7,0,37.62-.17,75.24.18,112.86,0,4.05,1.75,9.3,4.6,11.91,17.26,15.84,35.08,31.07,52,45.91V293.91c-5.9,0-11.64.41-17.29-.09-10.49-.94-14.95-10.41-7.9-18.14,22-24.06,44.47-47.62,66.88-71.27,5.56-5.87,11.76-5.72,17.26.08,22.16,23.35,44.33,46.69,66,70.47,2.53,2.78,3.93,9.08,2.51,12.26s-6.8,5.59-10.85,6.46c-5.07,1.09-10.56.26-17.19.26,0,18.13,0,34.7,0,51.26,0,10.47.85,21.08-.6,31.35l.39,44.46c-4.16,23.61,6.95,36.07,26,49.71C813,511.26,834.69,584.38,813.47,649c-22.18,67.46-82.24,112.26-153,113.57-29.47.54-59,.12-88.43.16M552.55,306.78c0-5.31,0-9.53,0-13.75,0-35.25-.13-70.49-.06-105.74,0-10.18-2.8-21.87,14-24l-41.41-43.87-41.8,44.33c13.15,1.58,14.66,8.85,14.6,17.89-.24,34.47-.12,68.94-.07,103.41,0,4.1.34,8.2.49,11.64Zm-211,101.81c12-28,27.53-52,49.76-71.83,2.89-2.58,4.42-8,4.51-12.18.44-21.27.4-42.56.14-63.84-.12-9.8.19-18.84,14.55-20.11l-41.86-44.12c-14.08,14.94-27.22,28.88-41.67,44.23,13.15,1.55,15,9,14.74,18.5-.39,13.54-.17,27.09-.17,40.63Q341.51,354.23,341.52,408.59Z"/><path class="cls-2" d="M581.85,520.43c40.42-.15,72.3,31.55,72.56,72.14.24,39.18-32.59,72.1-71.79,72-40.09-.12-72.95-32.77-72.84-72.41C509.89,552.76,542.22,520.57,581.85,520.43Zm-49.54,71.29c-.22,28.23,21.44,50.52,49.32,50.76a50.15,50.15,0,1,0,1.24-100.3A49.55,49.55,0,0,0,532.31,591.72Z"/><path class="cls-2" d="M359.34,517.68c12.25,5.23,24.74,10,36.66,15.89,6.16,3.06,8.73,9.29,4.47,15.74s-9.87,5.23-16.41,2.61c-9.84-3.95-20.06-8.09-30.44-9.24-8.49-.94-17.05,3.22-19.06,13.49-2.1,10.78,5.84,13.85,13.73,16.9,10.1,3.93,20.28,7.73,30.15,12.21,20.22,9.2,30.58,25.4,27.71,42.42-3.23,19.1-19.15,33.59-40.3,36.12-20.83,2.5-39.05-3.65-54.57-17.72-5.8-5.26-9-11.59-2.68-18.05,5.78-5.9,11.95-3.31,17.37,1.75,10.91,10.16,24,14.28,38.56,12,9.74-1.51,18-6.56,19.42-17.27,1.41-10.26-6.17-15.41-14.15-19-10.58-4.79-21.55-8.68-32.28-13.15-18.59-7.76-28-22-25.48-38.25,2.64-17.29,17.11-30.76,35.72-33.17,3.45-.44,6.95-.55,10.43-.81Z"/><path class="cls-2" d="M449,542.37v39.19c10.76,0,21.45.09,32.14,0,7.42-.09,13.68,2,13.91,10.37.26,9.19-6.34,11.32-14.21,11.24-10.36-.11-20.71,0-31.81,0v39c11.39,0,22.82.15,34.24-.05,8.17-.15,15.49,1.31,15.43,11.23-.05,9.31-7.16,10.68-14.81,10.63q-22.08-.17-44.16,0c-9.17.05-13.7-4.53-13.72-13.47q-.09-58.12,0-116.24c0-8.94,4.58-13.45,13.78-13.36,15.5.14,31,0,46.5,0,7.28,0,12.33,3.1,12.44,10.68s-5,10.86-12.22,10.9C474.57,542.41,462.6,542.37,449,542.37Z"/></svg>