<svg id="Layer_1" data-name="Layer 1" xmlns="http://www.w3.org/2000/svg" viewBox="0 0 886 878"><defs><style>.cls-1,.cls-2{fill:#fff;stroke:#f56a6a;stroke-miterlimit:10;}.cls-1{stroke-width:14px;}.cls-2{stroke-width:10px;}</style></defs><path class="cls-1" d="M775.28,164.38c-.13-31.21-21.42-57-51.76-64.15-19.77-4.63-39.92-1.09-59.87-2.12h0q-99.23,0-198.47,0c-35.56,0-65.9,30.61-65.93,66.42,0,37.91,0,75.81-.06,113.72,0,3.77,1.36,8-2.06,11.16-.53,3.46,1.95,5.28,4.19,6.92C418.87,309.19,424.22,326.8,424,348c-.62,58.36-.24,116.73-.18,175.09,0,5.67-.78,11.51,2.12,16.84a2.53,2.53,0,0,0,3.41,1v-79.2c15.78,9.86,31.48,10.8,47.74,10.56,34.64-.51,69.3.2,103.94-.38,9.64-.17,13.17,2.79,11.72,12.09a35.5,35.5,0,0,0,0,5.36c0,11.46-.06,22.91,0,34.37,0,2.41-1.06,5.51,1.28,7,3.2,2.07,5.31-1.44,7.32-2.92,15.78-11.61,33.07-21.84,46.55-35.75,17.9-18.47,38.44-21.58,62.18-20.17,32.93,2,64.7-28.27,65.06-63.63C775.94,327,775.6,245.67,775.28,164.38Z"/><path class="cls-1" d="M388.72,542.36c-13,2.12-22.84,9.63-29.32,21.16-3.41,6.06-5.38,12.47-2,19.33.26,4.27.73,8.54.74,12.81.06,39.74-.06,79.47.08,119.2.09,24.4,15.18,39.4,39.54,39.54,23.62.14,47.25.09,70.87.12,2.12,7.39.7,15,1.22,22.42.21,3-1.6,7.06,1.85,8.73,3,1.44,4.87-2.2,7-3.82,8.59-6.41,17.34-12.66,25.5-19.59a31.69,31.69,0,0,1,22.38-7.94c25.29.37,41.64-14.84,42-40,.61-43.29.51-86.61,0-129.9-.25-22.12-16.16-39.25-36.94-40.1-16.77-.69-33.6.16-50.41.32Zm40.74,1.53"/><path class="cls-1" d="M534.61,280.6c19.27-18.56,37.26-38.31,52.63-60.22,6.9-9.83,8.92-21.71,9.66-33.59.35-5.52,1.83-10,7.75-11.28,6.37-1.4,11.09.88,14.1,6.87,10.1,20.09,10.43,40.29,1.52,60.93-7.75,17.95-7.53,18.05,12,18.08,15,0,30-.11,45.06.1,12.39.18,18.52,6.14,18.59,18.49q.27,47.75,0,95.48c0,11.26-4.38,16.64-15.89,17.43a719.6,719.6,0,0,1-111.33-.62c-13.28-1.14-23-10.58-33.93-17.21-3.56-3.25-3.55-7.65-3.59-11.9q-.3-35.3,0-70.59C531.16,288.32,531.16,283.92,534.61,280.6Z"/><path class="cls-1" d="M534.61,280.6l.12,94.47c.83,10.83-4.3,14.38-14.82,13.57s-21.44-.38-32.15-.11c-6,.14-9.27-1.37-9.23-8.29q.32-53.6,0-107.21c0-6.89,2.78-9.69,9.61-9.5,9.64.26,19.29.05,28.94.06C534.2,263.59,534.2,263.59,534.61,280.6Z"/><path class="cls-1" d="M512.91,621.41c5.6,9.92,3.21,21.61,0,32.42C503.61,669,489.22,678.22,474.41,687c-5.11,3-9.54,3.73-14.82.33-13.21-8.49-27.43-15.71-36-29.71-7-11.47-8.15-23.71-2.3-35.83,7.66-15.87,26.53-19.82,39.54-8,4.88,4.44,6.79,4.43,11.64,0C484.74,602.61,502.8,603.5,512.91,621.41Z"/><path class="cls-1" d="M388.52,287.15c-4.45-3.3-9.65-2.2-14.53-2.2q-94,0-187.94.16c-32.66.08-55.25,22.65-55.33,55.44-.15,61.57.28,123.15-.17,184.72-.22,30.51,26,56.22,55,54.88,30.72-1.43,61.56,0,92.34-.5,9.13-.14,11.92,3.08,11.47,11.82-.59,11.27-.15,22.59-.15,37.08,22.48-17.44,19.63-16.9,39.8-32.55l23-16.19,5.27,0c4.1-27.26,17.35-38.49,45.4-38.57,8.17,0,16.34-.21,24.51-.32,0-64.8-.55-129.62.32-194.42.35-25.49-8.52-44.4-30.49-57.2Z"/><path class="cls-2" d="M311.56,410.38,305.4,442.2h30.25V461H301.7l-9,46.83H272.8l9-46.83H254l-9,46.83h-19.5L234,461H206V442.2h31.71l6.38-31.82H214.54V391.56h32.83l9-47.28H276.5l-9,47.28h28.23l9-47.28h19.49l-9,47.28h28.23v18.82ZM257.45,442.2h28l6.38-31.82h-28Z"/></svg>