<svg id="Layer_1" data-name="Layer 1" xmlns="http://www.w3.org/2000/svg" viewBox="0 0 886 878"><defs><style>.cls-1{fill:#f56a6a;}.cls-2{fill:#fff;}</style></defs><path class="cls-1" d="M652.92,459c8.34,5.42,18.72.79,26.5,10.47v32.25l16.62,7.2,22.42-21.48c6.21-2.79,11.07-1.22,14.92,2.5,11.53,11.15,23.32,22.11,33.94,34.08,7.07,8,6,12.46-1.63,20.37-5.41,5.63-10.92,11.15-16.83,17.18,2.22,5.4,4.25,10.36,6.69,16.31H787.6c9.68,7.89,8.34,18,8.88,27,.91,15.43,1.49,31.08-6.08,46.74H755.8l-7,16.36c5.42,5.56,10.87,11.06,16.23,16.65,8.51,8.86,9.44,12.94,1.29,22.22a347.59,347.59,0,0,1-32.47,32.21c-8.14,7.12-12.46,6.13-20.42-1.43-5.67-5.37-11.17-10.91-17.18-16.8l-16.62,6.86v32.75c-14.9,11.34-59.14,11.19-73.13,0v-32.4l-16.64-7.62c-5.76,5.68-11.49,11.45-17.34,17.1-7.92,7.63-12.42,8.73-20.36,1.67-12-10.63-23.07-22.29-34-34-2.82-3-3.49-8.1-5.12-12.16l24-25c-2.15-5.21-4.07-9.85-6.42-15.56l-33.58-1.55c-9.21-7.09-4.64-17.45-9.84-26H474.16q-137.24,0-274.46,0c-19,0-20.16-1.14-20.16-19.88q0-216.73,0-433.47c0-19.2.88-20.09,19.81-20.09H634c2.36,0,4.72-.11,7.07.07,8.25.64,11.23,3.49,11.77,11.58.29,4.3.12,8.63.12,12.95q0,134.87,0,269.74ZM241,604H487.48c5.43-8-.18-19.35,11.56-26h31.21l6.93-16.25-22.49-23.24c-.1-18.29,34.36-52.43,52.13-51.82L590,509.07l16.32-7V467.56c4.36-1.76,8-3.67,12-4.72,4.42-1.19,9.06-1.6,13.87-2.4V214c-12.76-2.46-382.18-2.1-391.17.35Zm484.41,67.62,17-39.67h33.17a66.7,66.7,0,0,0,.2-33.75l-34.34-1.81c-5.39-13-10.29-24.89-15.78-38.17l23.12-25.91c-7.09-9.41-14.31-17.27-24.06-23.44-6,5.94-11.25,11.22-16.63,16.33-7.31,6.93-9.35,7-18.79,2.8-6.06-2.73-12.35-4.95-18.48-7.54-3.15-1.34-6.18-3-9.69-4.7-.53-11.7-1-22.8-1.57-34.51-12-.18-22.35-2.12-33,1.36q-1,17.49-1.94,33.49c-11.85,5.12-22.2,9.73-32.66,14-5,2.06-9.1-.15-12.71-3.7-5.82-5.72-11.73-11.35-17.85-17.26a72,72,0,0,0-24,23.95c5.93,6.13,12,11.66,17.1,18,2.42,3,4.94,8.27,3.91,11.33-3.84,11.4-9.14,22.31-14.16,34l-34.35,1.81v33.23L544.3,633c4.25,10.12,7.83,19.17,11.81,28,4.4,9.8,4.25,11.6-3.48,19.67-5.08,5.31-10.21,10.59-15.6,16.18,7.15,9.52,13.91,17.88,23.74,23.1,10.62-6.05,15.52-18.59,27.51-21.81l36.19,15.11q1.08,17,2.18,34.38c11.58,2.24,21.9,2.66,33.83-.55V713.86l39-16.37c4.25,3.67,8.65,7.33,12.89,11.16s8.35,7.89,12.26,11.6c12.07-7.71,19-15.12,23.12-24.37ZM199.85,212.83V603.91h19c2.66-14,2.09-382.3-.57-391.08Zm-.21-21.34H549.79V172.72c-12.85-2.91-340.89-2.41-350.15.56Zm391.85.14c.26-4.47.63-7.53.55-10.58s-.6-5.92-.95-9.12H571.36v19.7Zm40.37-.1V171.84H612.4v19.69Z"/><path class="cls-2" d="M241,604V214.33c9-2.45,378.41-2.81,391.17-.35V460.44c-4.81.8-9.45,1.21-13.87,2.4-3.91,1.05-7.59,3-12,4.72v34.52l-16.32,7-23.16-22.36c-17.77-.61-52.23,33.53-52.13,51.82l22.49,23.24L530.25,578H499c-11.74,6.65-6.13,18-11.56,26Zm62.14-174.69c2.13,9.29,8.65,9.65,15.69,9.64q71.67-.11,143.33-.05a35.66,35.66,0,0,0,7-.35c4.73-1,7.7-4,7.9-8.89s-2.51-8.28-7.19-9.43a40.76,40.76,0,0,0-9.32-.74c-11-.09-21.93-.08-32.9-.08q-54,0-108.08,0C312.23,419.47,305.06,419.49,303.09,429.33ZM447.18,378q-26.49,0-53,0a53.36,53.36,0,0,0-9.39.39c-4.69.87-7.72,3.87-8.09,8.8-.4,5.5,2.52,9,7.66,10.32,3,.74,6.22.62,9.34.63q53.58,0,107.14,0a51.25,51.25,0,0,0,8.23-.25c5.9-1,9.63-5.21,9.44-10.24s-4-8.72-10.14-9.51a59.12,59.12,0,0,0-7.05-.16Zm9.79,92.5c-1.23-6.94-5.6-10-12.37-10-22.75,0-45.49-.18-68.23,0-7.16.07-11.06,3.75-11.41,9.32-.38,6,3.82,10.52,11.38,10.62,22.74.29,45.48.16,68.22.09C451.26,480.53,455.71,477.43,457,470.46Zm-128.74-114v.06c9.38,0,18.75,0,28.13,0a73.08,73.08,0,0,0,9.37-.24c5.17-.68,8.76-3.42,9-9s-3-8.62-8.2-9.74a28.29,28.29,0,0,0-5.82-.47q-31.67,0-63.31,0a27.94,27.94,0,0,0-7,.64c-4.66,1.23-7.41,4.4-7.32,9.32s2.88,8.06,7.63,9a41.88,41.88,0,0,0,8.17.4C308.69,356.47,318.46,356.45,328.23,356.45Zm6-41c6.71-1.76,9.7-5.66,9.69-12,0-19.14.16-38.28-.07-57.41-.08-7.58-4.21-12-10-11.89s-9.72,4.35-9.82,12.18c-.24,18.74-.07,37.49,0,56.24C324.1,309.12,326.73,313.89,334.26,315.48Zm9.67,228.19h-.07c0-10.19.27-20.39-.1-30.57-.25-6.73-4.59-10.77-10.12-10.58-5.08.17-9.41,3.91-9.51,10.06q-.48,30,.12,60c.14,7,4.57,10.76,10.17,10.56s9.21-4.11,9.44-11.21C344.16,562.49,343.93,553.08,343.93,543.67ZM291.18,243.48c-9.73,5.77-16.52,14.5-24.19,22.13-6.77,6.73-6.58,10.9.07,18.09,5.31,5.73,10.88,11.23,16.62,16.54s11.25,5.82,15.45,1.69,3.71-9.45-1.61-15.43c-3.52-4-7.15-7.84-10.91-12,2.34-2.68,3.81-4.45,5.38-6.13,1.87-2,4-3.8,5.72-5.88C304.76,254.23,303.35,249.29,291.18,243.48Zm91,31c-5,5.28-8.94,9.08-12.44,13.26-4.27,5.1-4.35,9.82-.77,13.76,3.78,4.16,9.4,4.34,14.58-.35,6.4-5.78,12.31-12.11,18.45-18.17,3.73-3.68,4.83-7.94,2.47-14.41-9-7.4-16.15-19.12-27.81-25-11.62,5.88-13,11-5.81,19.19C374.11,266.57,377.79,270,382.15,274.52Zm-5.1,237.4c-12.06,5.71-13.44,10.66-6.29,19,3.47,4.06,7.26,7.84,11.19,12-4.58,4.86-8.5,8.66-12,12.8-4.57,5.43-4.64,10.68-.65,14.67s9.33,3.76,14.57-1.06c6.32-5.81,12.21-12.09,18.3-18.16,3.69-3.69,4.7-8,2.45-13.9C396,529.35,388.39,518.83,377.05,511.92Zm-90.58,31c4.26-4.54,7.82-8.09,11.1-11.89,7.59-8.81,5.75-14.46-6.76-18.72-10.49,6.1-18.34,15.88-26.62,25.07-3.67,4.06-2.49,8.92,1.14,12.71,6.48,6.77,13,13.53,19.91,19.85,4.72,4.33,9.87,4.18,13.62.62,4.09-3.88,4.11-9.16-.39-14.6C295,551.74,291.12,547.91,286.47,542.9Zm26.2-62.37c6.26,0,12.54.33,18.78-.08,6.89-.46,10.86-4.43,10.88-10s-3.87-9.66-10.84-9.87q-18.76-.56-37.55,0c-6.89.19-10.89,4.32-10.88,9.84s4.09,9.57,10.84,10C300.13,480.86,306.41,480.54,312.67,480.53ZM457.05,346.9c-1.46-7.07-5.78-9.75-11.94-9.8-12.13-.09-24.27-.28-36.4,0-7.8.21-12.07,4.33-11.72,10.18.33,5.45,4.28,8.87,11.6,9,12.13.25,24.27,0,36.41.07C451.24,356.43,455.47,353.83,457.05,346.9Zm-153.84,41c1.33,7.39,6.12,10.29,13.27,10.24,8.56-.06,17.13.17,25.69-.15,7.79-.3,11.86-4,11.93-9.94s-3.89-9.82-11.68-10.08c-8.94-.3-17.9,0-26.85,0C308.8,378,304.52,381,303.21,387.94Zm221,50.91v.09c2.35,0,4.71,0,7.06,0a80.53,80.53,0,0,0,8.23-.14c6.3-.68,9.89-4.26,9.87-9.5s-3.53-9.27-9.86-9.56a302.62,302.62,0,0,0-30.57.13c-6.19.36-9.83,4.85-9.28,10,.58,5.41,3.85,8.58,9.25,8.9C514,439.09,519.06,438.85,524.16,438.85Z"/><path class="cls-2" d="M725.36,671.64l22.4,24.24c-4.09,9.25-11,16.66-23.12,24.37-3.91-3.71-8-7.74-12.26-11.6s-8.64-7.49-12.89-11.16l-39,16.37v33.25c-11.93,3.21-22.25,2.79-33.83.55q-1.1-17.34-2.18-34.38l-36.19-15.11c-12,3.22-16.89,15.76-27.51,21.81-9.83-5.22-16.59-13.58-23.74-23.1,5.39-5.59,10.52-10.87,15.6-16.18,7.73-8.07,7.88-9.87,3.48-19.67-4-8.87-7.56-17.92-11.81-28l-34.49-1.43V598.33l34.35-1.81c5-11.72,10.32-22.63,14.16-34,1-3.06-1.49-8.31-3.91-11.33-5.07-6.34-11.17-11.87-17.1-18a72,72,0,0,1,24-23.95c6.12,5.91,12,11.54,17.85,17.26,3.61,3.55,7.7,5.76,12.71,3.7,10.46-4.32,20.81-8.93,32.66-14q.93-16,1.94-33.49c10.69-3.48,21.07-1.54,33-1.36.53,11.71,1,22.81,1.57,34.51,3.51,1.71,6.54,3.36,9.69,4.7,6.13,2.59,12.42,4.81,18.48,7.54,9.44,4.25,11.48,4.13,18.79-2.8,5.38-5.11,10.59-10.39,16.63-16.33,9.75,6.17,17,14,24.06,23.44l-23.12,25.91c5.49,13.28,10.39,25.12,15.78,38.17l34.34,1.81a66.7,66.7,0,0,1-.2,33.75H742.37ZM643.42,563.93a50.91,50.91,0,0,0-1,101.82c28.51.12,51.09-22,51.45-50.42A50.62,50.62,0,0,0,643.42,563.93Z"/><path class="cls-2" d="M199.85,212.83h18.39c2.66,8.78,3.23,377.07.57,391.08h-19Z"/><path class="cls-2" d="M199.64,191.49V173.28c9.26-3,337.3-3.47,350.15-.56v18.77Z"/><path class="cls-2" d="M591.49,191.63H571.36v-19.7h19.73c.35,3.2.88,6.16.95,9.12S591.75,187.16,591.49,191.63Z"/><path class="cls-2" d="M631.86,191.53H612.4V171.84h19.46Z"/><path class="cls-1" d="M303.09,429.33c2-9.84,9.14-9.86,16.45-9.86q54,0,108.08,0c11,0,21.93,0,32.9.08a40.76,40.76,0,0,1,9.32.74c4.68,1.15,7.39,4.53,7.19,9.43s-3.17,7.92-7.9,8.89a35.66,35.66,0,0,1-7,.35q-71.67,0-143.33.05C311.74,439,305.22,438.62,303.09,429.33Z"/><path class="cls-1" d="M447.18,378h54.16a59.12,59.12,0,0,1,7.05.16c6.17.79,10,4.45,10.14,9.51s-3.54,9.27-9.44,10.24a51.25,51.25,0,0,1-8.23.25q-53.57,0-107.14,0c-3.12,0-6.36.11-9.34-.63-5.14-1.27-8.06-4.82-7.66-10.32.37-4.93,3.4-7.93,8.09-8.8a53.36,53.36,0,0,1,9.39-.39Q420.69,377.92,447.18,378Z"/><path class="cls-1" d="M457,470.46c-1.26,7-5.71,10.07-12.41,10.09-22.74.07-45.48.2-68.22-.09-7.56-.1-11.76-4.62-11.38-10.62.35-5.57,4.25-9.25,11.41-9.32,22.74-.21,45.48-.06,68.23,0C451.37,460.5,455.74,463.52,457,470.46Z"/><path class="cls-1" d="M328.23,356.45c-9.77,0-19.54,0-29.31,0a41.88,41.88,0,0,1-8.17-.4c-4.75-1-7.54-4.12-7.63-9s2.66-8.09,7.32-9.32a27.94,27.94,0,0,1,7-.64q31.65-.06,63.31,0a28.29,28.29,0,0,1,5.82.47c5.16,1.12,8.45,4.12,8.2,9.74s-3.84,8.35-9,9a73.08,73.08,0,0,1-9.37.24c-9.38,0-18.75,0-28.13,0Z"/><path class="cls-1" d="M334.26,315.48c-7.53-1.59-10.16-6.36-10.2-12.9-.09-18.75-.26-37.5,0-56.24.1-7.83,4-12.1,9.82-12.18s9.94,4.31,10,11.89c.23,19.13,0,38.27.07,57.41C344,309.82,341,313.72,334.26,315.48Z"/><path class="cls-1" d="M343.93,543.67c0,9.41.23,18.82-.07,28.22-.23,7.1-3.84,11-9.44,11.21s-10-3.61-10.17-10.56q-.62-30-.12-60c.1-6.15,4.43-9.89,9.51-10.06,5.53-.19,9.87,3.85,10.12,10.58.37,10.18.1,20.38.1,30.57Z"/><path class="cls-1" d="M291.18,243.48c12.17,5.81,13.58,10.75,6.53,19-1.76,2.08-3.85,3.88-5.72,5.88-1.57,1.68-3,3.45-5.38,6.13,3.76,4.12,7.39,8,10.91,12,5.32,6,5.83,11.26,1.61,15.43s-9.59,3.74-15.45-1.69-11.31-10.81-16.62-16.54c-6.65-7.19-6.84-11.36-.07-18.09C274.66,258,281.45,249.25,291.18,243.48Z"/><path class="cls-1" d="M382.15,274.52c-4.36-4.49-8-7.95-11.33-11.74-7.17-8.23-5.81-13.31,5.81-19.19,11.66,5.9,18.77,17.62,27.81,25,2.36,6.47,1.26,10.73-2.47,14.41-6.14,6.06-12.05,12.39-18.45,18.17-5.18,4.69-10.8,4.51-14.58.35-3.58-3.94-3.5-8.66.77-13.76C373.21,283.6,377.16,279.8,382.15,274.52Z"/><path class="cls-1" d="M377.05,511.92c11.34,6.91,19,17.43,27.58,25.42,2.25,5.95,1.24,10.21-2.45,13.9-6.09,6.07-12,12.35-18.3,18.16-5.24,4.82-10.68,4.94-14.57,1.06s-3.92-9.24.65-14.67c3.49-4.14,7.41-7.94,12-12.8-3.93-4.21-7.72-8-11.19-12C363.61,522.58,365,517.63,377.05,511.92Z"/><path class="cls-1" d="M286.47,542.9c4.65,5,8.54,8.84,12,13,4.5,5.44,4.48,10.72.39,14.6-3.75,3.56-8.9,3.71-13.62-.62-6.91-6.32-13.43-13.08-19.91-19.85-3.63-3.79-4.81-8.65-1.14-12.71,8.28-9.19,16.13-19,26.62-25.07,12.51,4.26,14.35,9.91,6.76,18.72C294.29,534.81,290.73,538.36,286.47,542.9Z"/><path class="cls-1" d="M312.67,480.54c-6.26,0-12.54.32-18.77-.09-6.75-.43-10.84-4.54-10.84-10s4-9.65,10.88-9.84q18.76-.53,37.55,0c7,.21,10.87,4.27,10.84,9.87s-4,9.5-10.88,10C325.21,480.86,318.93,480.53,312.67,480.54Z"/><path class="cls-1" d="M457.05,346.9c-1.58,6.93-5.81,9.53-12.05,9.52-12.14,0-24.28.18-36.41-.07-7.32-.15-11.27-3.57-11.6-9-.35-5.85,3.92-10,11.72-10.18,12.13-.33,24.27-.14,36.4,0C451.27,337.15,455.59,339.83,457.05,346.9Z"/><path class="cls-1" d="M303.21,387.94c1.31-6.91,5.59-10,12.36-10,8.95,0,17.91-.27,26.85,0,7.79.26,11.75,4,11.68,10.08S350,397.73,342.17,398c-8.56.32-17.13.09-25.69.15C309.33,398.23,304.54,395.33,303.21,387.94Z"/><path class="cls-1" d="M524.16,438.85c-5.1,0-10.21.24-15.3-.06-5.4-.32-8.67-3.49-9.25-8.9-.55-5.18,3.09-9.67,9.28-10a302.62,302.62,0,0,1,30.57-.13c6.33.29,9.85,4.37,9.86,9.56s-3.57,8.82-9.87,9.5a80.53,80.53,0,0,1-8.23.14c-2.35,0-4.71,0-7.06,0Z"/><path class="cls-1" d="M643.42,563.93a50.62,50.62,0,0,1,50.42,51.4c-.36,28.41-22.94,50.54-51.45,50.42a50.91,50.91,0,0,1,1-101.82Zm-.2,19.57a31.35,31.35,0,1,0,31,31.85A31.72,31.72,0,0,0,643.22,583.5Z"/><path class="cls-2" d="M643.22,583.5a31.35,31.35,0,1,1-31.59,31.42A31.55,31.55,0,0,1,643.22,583.5Z"/></svg>